# xmcd
#
# Track frame offsets:
#	150
#	17826
#	40034
#	55440
#	67728
#	86151
#	103708
#	129897
#	145236
#	166098
#	182622
# Disc length: 2692 seconds
# Revision: 1
# Processed by: cddbd v1.5.1PL2 Copyright (c) Steve Scherf et al.
#
# Submitted via: libkcddb 0.21
#
DISCID=890a820b
DTITLE=From mp3.com - Blues Fools
DYEAR=1900
DGENRE=
TTITLE0=Bad Weather Blues
TTITLE1=Daddy Was A Boozer
TTITLE2=Fat Mama Boogie
TTITLE3=Fools In The Blues
TTITLE4=I Wanna Dance With You
TTITLE5=Little Boy Rock
TTITLE6=Lookin' Thru The Keyhole
TTITLE7=Mattack!
TTITLE8=My Baby Caught The Train
TTITLE9=Shake Time
TTITLE10=Swingin' All Night Long
EXTD=
EXTT0=
EXTT1=
EXTT2=
EXTT3=
EXTT4=
EXTT5=
EXTT6=
EXTT7=
EXTT8=
EXTT9=
EXTT10=
PLAYORDER=
